<svg version="1.1" id="Layer_1" xmlns="http://www.w3.org/2000/svg" xmlns:xlink="http://www.w3.org/1999/xlink" x="0px" y="0px" width="100%" viewBox="0 0 300 300" enable-background="new 0 0 300 300" xml:space="preserve">
	<path fill="#FFFFFF" opacity="1.000000" stroke="none" d="
M192.000000,301.000000 
	C128.000015,301.000000 64.500023,301.000000 1.000026,301.000000 
	C1.000017,201.000031 1.000017,101.000061 1.000009,1.000066 
	C100.999947,1.000044 200.999893,1.000044 300.999878,1.000022 
	C300.999939,100.999939 300.999939,200.999878 300.999969,300.999908 
	C264.833344,301.000000 228.666672,301.000000 192.000000,301.000000 
M166.655945,216.091003 
	C167.444275,216.286285 168.232605,216.481552 169.935547,216.882675 
	C196.740906,216.913055 223.565826,217.580902 250.345001,216.758636 
	C269.468506,216.171417 285.298615,198.551468 285.881256,180.759537 
	C286.415009,164.460114 286.003906,148.129303 285.968414,131.812424 
	C285.965210,130.334473 285.780609,128.833344 285.483856,127.383156 
	C281.612518,108.465050 264.731934,94.654129 244.388000,94.947281 
	C225.743866,95.215935 207.092453,95.067039 188.445496,94.931595 
	C186.279297,94.915863 183.872833,94.236565 182.000656,93.141754 
	C172.306976,87.473076 162.756760,81.559387 153.144363,75.751251 
	C147.560349,72.377197 141.953461,69.041023 135.883972,65.404465 
	C135.883972,72.844322 135.883972,79.442009 135.285889,85.856445 
	C134.519348,85.644241 133.752808,85.432030 132.064896,85.046341 
	C107.407387,85.030540 82.749252,85.107063 58.092766,84.940331 
	C51.080540,84.892921 44.580032,85.849815 38.039688,88.817215 
	C26.350357,94.120712 16.040524,108.433434 16.009935,121.072540 
	C15.970824,137.233246 15.983603,153.394180 16.026001,169.554886 
	C16.030731,171.358704 16.154417,173.216934 16.593222,174.956528 
	C21.638218,194.956680 37.052814,206.910278 57.768040,206.931686 
	C76.427925,206.950989 95.088264,206.876556 113.747162,207.013397 
	C115.920433,207.029327 118.344391,207.690170 120.213577,208.794403 
	C134.348068,217.144302 148.371735,225.681732 162.434525,234.153107 
	C163.473404,234.778915 164.547607,235.346100 165.835297,236.069733 
	C165.835297,230.992920 165.835297,226.501465 165.985596,221.219635 
	C165.934692,220.150955 165.883789,219.082260 165.986267,217.351562 
	C166.003143,216.898788 166.020020,216.445999 166.655945,216.091003 
z" />
	<path fill="#1DB5B4" opacity="1.000000" stroke="none" d="
M135.883972,86.039688 
	C135.883972,79.442009 135.883972,72.844322 135.883972,65.404465 
	C141.953461,69.041023 147.560349,72.377197 153.144363,75.751251 
	C162.756760,81.559387 172.306976,87.473076 182.000656,93.141754 
	C183.872833,94.236565 186.279297,94.915863 188.445496,94.931595 
	C207.092453,95.067039 225.743866,95.215935 244.388000,94.947281 
	C264.731934,94.654129 281.612518,108.465050 285.483856,127.383156 
	C285.780609,128.833344 285.965210,130.334473 285.968414,131.812424 
	C286.003906,148.129303 286.415009,164.460114 285.881256,180.759537 
	C285.298615,198.551468 269.468506,216.171417 250.345001,216.758636 
	C223.565826,217.580902 196.740906,216.913055 169.477020,216.332031 
	C169.012192,185.637207 169.121765,155.492218 168.910736,125.349487 
	C168.863358,118.582718 167.856491,111.761757 161.727417,106.771652 
	C155.769958,96.403496 147.662781,89.288315 136.063812,86.381966 
	C135.980301,86.281898 135.883972,86.039688 135.883972,86.039688 
z" />
	<path fill="#FE8582" opacity="1.000000" stroke="none" d="
M165.835297,222.010010 
	C165.835297,226.501465 165.835297,230.992920 165.835297,236.069733 
	C164.547607,235.346100 163.473404,234.778915 162.434525,234.153107 
	C148.371735,225.681732 134.348068,217.144302 120.213577,208.794403 
	C118.344391,207.690170 115.920433,207.029327 113.747162,207.013397 
	C95.088264,206.876556 76.427925,206.950989 57.768040,206.931686 
	C37.052814,206.910278 21.638218,194.956680 16.593222,174.956528 
	C16.154417,173.216934 16.030731,171.358704 16.026001,169.554886 
	C15.983603,153.394180 15.970824,137.233246 16.009935,121.072540 
	C16.040524,108.433434 26.350357,94.120712 38.039688,88.817215 
	C44.580032,85.849815 51.080540,84.892921 58.092766,84.940331 
	C82.749252,85.107063 107.407387,85.030540 132.526001,85.587746 
	C132.990997,116.761635 132.994781,147.394119 132.998795,178.026611 
	C133.001648,199.776764 144.865891,215.668320 165.835297,222.010010 
z" />
	<path fill="#F27E7B" opacity="1.000000" stroke="none" d="
M165.910446,221.614822 
	C144.865891,215.668320 133.001648,199.776764 132.998795,178.026611 
	C132.994781,147.394119 132.990997,116.761635 132.986694,85.674484 
	C133.752808,85.432030 134.519348,85.644241 135.584930,85.948067 
	C135.883972,86.039688 135.980301,86.281898 136.005066,86.895981 
	C136.018433,115.479187 136.166168,143.449768 135.908829,171.416626 
	C135.819458,181.128510 137.213791,190.273682 142.107834,199.113190 
	C143.096573,200.637039 144.097549,201.786240 145.081085,202.945770 
	C145.063644,202.956085 145.086060,202.916306 145.082855,203.281830 
	C149.426743,212.149597 156.514297,216.693039 165.832870,218.013580 
	C165.883789,219.082260 165.934692,220.150955 165.910446,221.614822 
z" />
	<path fill="#1CACAB" opacity="1.000000" stroke="none" d="
M161.960587,107.012085 
	C167.856491,111.761757 168.863358,118.582718 168.910736,125.349487 
	C169.121765,155.492218 169.012192,185.637207 169.019714,216.229095 
	C168.232605,216.481552 167.444275,216.286285 166.281799,215.964294 
	C165.907654,215.837601 165.922760,215.635864 165.942627,215.121094 
	C165.976501,187.357483 165.877243,160.107880 166.069168,132.860306 
	C166.131897,123.956444 165.400330,115.300743 161.960587,107.012085 
z" />
	<path fill="#DE7875" opacity="1.000000" stroke="none" d="
M165.922760,215.635864 
	C165.922760,215.635864 165.907654,215.837601 165.972260,215.915405 
	C166.020020,216.445999 166.003143,216.898788 165.909576,217.682571 
	C156.514297,216.693039 149.426743,212.149597 145.379929,203.433151 
	C151.294205,209.205826 157.835815,213.680481 165.922760,215.635864 
z" />
	<path fill="#1D5F5C" opacity="1.000000" stroke="none" d="
M165.942627,215.121094 
	C157.835815,213.680481 151.294205,209.205826 145.383148,203.067627 
	C145.086060,202.916306 145.063644,202.956085 144.991241,202.632599 
	C143.985901,201.118912 143.052979,199.928726 142.120071,198.738541 
	C137.213791,190.273682 135.819458,181.128510 135.908829,171.416626 
	C136.166168,143.449768 136.018433,115.479187 136.088562,86.996048 
	C147.662781,89.288315 155.769958,96.403496 161.727417,106.771652 
	C165.400330,115.300743 166.131897,123.956444 166.069168,132.860306 
	C165.877243,160.107880 165.976501,187.357483 165.942627,215.121094 
z" />
	<path fill="#DE7875" opacity="1.000000" stroke="none" d="
M142.107834,199.113190 
	C143.052979,199.928726 143.985901,201.118912 145.008682,202.622269 
	C144.097549,201.786240 143.096573,200.637039 142.107834,199.113190 
z" />
</svg>
